<svg width="106" height="136" viewBox="0 0 106 136" fill="none" xmlns="http://www.w3.org/2000/svg">
<path d="M39.552 135.808C31.1893 135.808 24.064 134.101 18.176 130.688C12.288 127.36 7.76533 122.709 4.608 116.736C1.536 110.763 0 103.851 0 96C0 88.576 1.152 81.28 3.456 74.112C5.76 66.944 9.17333 59.904 13.696 52.992C18.2187 46.1653 23.808 39.6373 30.464 33.408C37.12 27.0933 44.8 21.12 53.504 15.488C53.3333 15.232 52.4373 15.0187 50.816 14.848C49.1947 14.592 47.2747 14.3787 45.056 14.208C42.8373 14.0373 40.6187 13.9093 38.4 13.824C36.2667 13.7387 34.56 13.696 33.28 13.696C30.208 13.696 27.52 14.0373 25.216 14.72C22.9973 15.3173 21.0347 17.2373 19.328 20.48L16.128 19.456C17.408 15.5307 18.816 12.3307 20.352 9.856C21.888 7.38133 23.552 5.46133 25.344 4.096C27.648 2.304 30.1227 1.19466 32.768 0.767998C35.4987 0.255999 38.4427 0 41.6 0C43.5627 0 45.9093 0.128001 48.64 0.384003C51.3707 0.554667 54.1867 0.853333 57.088 1.28C59.9893 1.70667 62.6773 2.21867 65.152 2.816C67.712 3.328 69.6747 3.92533 71.04 4.608L71.168 5.504C69.888 8.14933 68.3093 10.496 66.432 12.544C64.64 14.5067 62.592 16.2133 60.288 17.664C56.6187 20.0533 52.9067 22.656 49.152 25.472C45.3973 28.2027 41.7707 31.1893 38.272 34.432C33.4933 38.784 29.0987 43.4773 25.088 48.512C21.1627 53.4613 18.048 58.6667 15.744 64.128C13.44 69.5893 12.288 75.2213 12.288 81.024C12.288 86.144 13.184 90.6667 14.976 94.592C16.8533 98.6027 19.456 101.973 22.784 104.704C26.112 107.435 30.08 109.483 34.688 110.848C39.296 112.299 44.3307 113.024 49.792 113.024C61.312 113.024 71.296 109.995 79.744 103.936C88.192 97.8773 95.36 88.7893 101.248 76.672L105.216 77.824C101.973 86.016 98.1333 93.6107 93.696 100.608C89.344 107.691 84.4373 113.835 78.976 119.04C73.5147 124.331 67.4987 128.427 60.928 131.328C54.3573 134.315 47.232 135.808 39.552 135.808Z" fill="black"/>
</svg>
